<svg width="34" height="34" viewBox="0 0 34 34" fill="none" xmlns="http://www.w3.org/2000/svg">
<circle cx="17" cy="17" r="16" transform="rotate(90 17 17)" fill="#2563EB"/>
<path d="M17 4L26 19.5865C26 19.5865 23.0875 20.7598 21.3301 19.1535C19.5728 17.5473 17 11.3603 17 11.3603C17 11.3603 14.4272 17.5473 12.6699 19.1535C10.9125 20.7598 8 19.5865 8 19.5865L17 4Z" fill="white"/>
<path d="M17 11L26 26.5865C26 26.5865 23.0875 27.7598 21.3301 26.1535C19.5728 24.5473 17 18.3603 17 18.3603C17 18.3603 14.4272 24.5473 12.6699 26.1535C10.9125 27.7598 8 26.5865 8 26.5865L17 11Z" fill="#FDE047"/>
</svg>
